# xmcd CD database file
#
# Track frame offsets:
#	150
#	14262
#	35443
#	56644
#	71756
#	84832
#	97561
#	112500
#	121536
#	137375
#	152641
#
# Disc length: 2293 seconds
#
# Revision: 1
# Processed by: cddbd v1.5.1PL2 Copyright (c) Steve Scherf et al.
# Submitted via: CDex 1.51
#
DISCID=6e08f30b
DTITLE=Amos Lee - Amos Lee
DYEAR=2005
DGENRE=Jazz
TTITLE0=Keep It Loose, Keep It Tight
TTITLE1=Seen It All Before
TTITLE2=Arms Of A Woman
TTITLE3=Give It Up
TTITLE4=Dreamin?
TTITLE5=Soul Suckers
TTITLE6=Colors
TTITLE7=Bottom Of The Barrel
TTITLE8=Black River
TTITLE9=Love In The Lies
TTITLE10=All My Friends
EXTD=YEAR: 2005
EXTT0=
EXTT1=
EXTT2=
EXTT3=
EXTT4=
EXTT5=
EXTT6=
EXTT7=
EXTT8=
EXTT9=
EXTT10=
PLAYORDER=
